<svg xmlns="http://www.w3.org/2000/svg" width="329" height="173" fill="none" viewBox="0 0 329 173"><g clip-path="url(#clip0_993_2410)"><rect width="328" height="172" x=".5" y=".5" fill="url(#paint0_linear_993_2410)" fill-opacity=".5" stroke="url(#paint1_linear_993_2410)" rx="5.5"/><rect width="256" height="118" x="36" y="24" fill="url(#paint2_linear_993_2410)" fill-opacity=".26" rx="3"/><g clip-path="url(#clip1_993_2410)"><line x1="45" x2="46" y1="35" y2="35" stroke="#475569" stroke-linecap="round" stroke-opacity=".4" stroke-width="6"/><line x1="61" x2="85" y1="35" y2="35" stroke="#475569" stroke-linecap="round" stroke-opacity=".4" stroke-width="6"/><line x1="120.5" x2="151.5" y1="35" y2="35" stroke="#475569" stroke-linecap="round" stroke-opacity=".4" stroke-width="6"/><line x1="179" x2="202" y1="35" y2="35" stroke="#475569" stroke-linecap="round" stroke-opacity=".4" stroke-width="6"/><line x1="240.5" x2="263.5" y1="35" y2="35" stroke="#475569" stroke-linecap="round" stroke-opacity=".4" stroke-width="6"/></g><path fill="#475569" fill-opacity=".3" d="M37 25H291H37ZM291 46.5H37V45.5H291V46.5ZM37 46V25V46ZM291 25V46V25Z" mask="url(#path-4-inside-1_993_2410)"/><g clip-path="url(#clip2_993_2410)"><line x1="44" x2="45" y1="55" y2="55" stroke="#475569" stroke-linecap="round" stroke-opacity=".3" stroke-width="4"/><line x1="61" x2="83" y1="55" y2="55" stroke="#475569" stroke-linecap="round" stroke-opacity=".3" stroke-width="4"/><line x1="120.5" x2="142.5" y1="55" y2="55" stroke="#475569" stroke-linecap="round" stroke-opacity=".3" stroke-width="4"/><line x1="178" x2="205" y1="55" y2="55" stroke="#475569" stroke-linecap="round" stroke-opacity=".3" stroke-width="4"/><line x1="239.5" x2="253.5" y1="55" y2="55" stroke="#475569" stroke-linecap="round" stroke-opacity=".3" stroke-width="4"/></g><path fill="#475569" fill-opacity=".3" d="M291 63.7H37V64.3H291V63.7Z" mask="url(#path-11-inside-2_993_2410)"/><g clip-path="url(#clip3_993_2410)"><line x1="44" x2="45" y1="74" y2="74" stroke="#475569" stroke-linecap="round" stroke-opacity=".3" stroke-width="4"/><line x1="61" x2="91" y1="74" y2="74" stroke="#475569" stroke-linecap="round" stroke-opacity=".3" stroke-width="4"/><line x1="120.5" x2="135.5" y1="74" y2="74" stroke="#475569" stroke-linecap="round" stroke-opacity=".3" stroke-width="4"/><line x1="178" x2="191" y1="74" y2="74" stroke="#475569" stroke-linecap="round" stroke-opacity=".3" stroke-width="4"/><line x1="239.5" x2="261.5" y1="74" y2="74" stroke="#475569" stroke-linecap="round" stroke-opacity=".3" stroke-width="4"/></g><path fill="#475569" fill-opacity=".3" d="M291 82.7H37V83.3H291V82.7Z" mask="url(#path-18-inside-3_993_2410)"/><g clip-path="url(#clip4_993_2410)"><line x1="44" x2="45" y1="93" y2="93" stroke="#475569" stroke-linecap="round" stroke-opacity=".3" stroke-width="4"/><line x1="61" x2="73" y1="93" y2="93" stroke="#475569" stroke-linecap="round" stroke-opacity=".3" stroke-width="4"/><line x1="120.5" x2="142.5" y1="93" y2="93" stroke="#475569" stroke-linecap="round" stroke-opacity=".3" stroke-width="4"/><line x1="178" x2="200" y1="93" y2="93" stroke="#475569" stroke-linecap="round" stroke-opacity=".3" stroke-width="4"/><line x1="239.5" x2="275.5" y1="93" y2="93" stroke="#475569" stroke-linecap="round" stroke-opacity=".3" stroke-width="4"/></g><path fill="#475569" fill-opacity=".3" d="M291 101.7H37V102.3H291V101.7Z" mask="url(#path-25-inside-4_993_2410)"/><g opacity=".59"><g clip-path="url(#clip5_993_2410)"><line x1="44" x2="45" y1="112" y2="112" stroke="#475569" stroke-linecap="round" stroke-opacity=".3" stroke-width="4"/><line x1="61" x2="76" y1="112" y2="112" stroke="#475569" stroke-linecap="round" stroke-opacity=".3" stroke-width="4"/><line x1="120.5" x2="142.5" y1="112" y2="112" stroke="#475569" stroke-linecap="round" stroke-opacity=".3" stroke-width="4"/><line x1="178" x2="211" y1="112" y2="112" stroke="#475569" stroke-linecap="round" stroke-opacity=".3" stroke-width="4"/><line x1="239.5" x2="261.5" y1="112" y2="112" stroke="#475569" stroke-linecap="round" stroke-opacity=".3" stroke-width="4"/></g><path fill="#475569" fill-opacity=".3" d="M291 120.7H37V121.3H291V120.7Z" mask="url(#path-32-inside-5_993_2410)"/></g><g clip-path="url(#clip6_993_2410)" opacity=".35"><line x1="44" x2="45" y1="131" y2="131" stroke="#475569" stroke-linecap="round" stroke-opacity=".3" stroke-width="4"/><line x1="61" x2="83" y1="131" y2="131" stroke="#475569" stroke-linecap="round" stroke-opacity=".3" stroke-width="4"/><line x1="120.5" x2="134.5" y1="131" y2="131" stroke="#475569" stroke-linecap="round" stroke-opacity=".3" stroke-width="4"/><line x1="178" x2="200" y1="131" y2="131" stroke="#475569" stroke-linecap="round" stroke-opacity=".3" stroke-width="4"/><line x1="239.5" x2="272.5" y1="131" y2="131" stroke="#475569" stroke-linecap="round" stroke-opacity=".3" stroke-width="4"/></g><rect width="255" height="117" x="36.5" y="24.5" stroke="url(#paint3_linear_993_2410)" stroke-opacity=".1" rx="2.5"/></g><defs><linearGradient id="paint0_linear_993_2410" x1="164.5" x2="164.5" y1="0" y2="78.709" gradientUnits="userSpaceOnUse"><stop stop-color="#475569"/><stop offset="1" stop-color="#475569" stop-opacity="0"/></linearGradient><linearGradient id="paint1_linear_993_2410" x1="164.5" x2="164.52" y1="0" y2="117.577" gradientUnits="userSpaceOnUse"><stop stop-color="#475569"/><stop offset="1" stop-color="#475569" stop-opacity="0"/></linearGradient><linearGradient id="paint2_linear_993_2410" x1="164" x2="164" y1="24" y2="142" gradientUnits="userSpaceOnUse"><stop stop-color="#475569"/><stop offset="1" stop-color="#475569" stop-opacity="0"/></linearGradient><linearGradient id="paint3_linear_993_2410" x1="164" x2="164" y1="24" y2="142" gradientUnits="userSpaceOnUse"><stop stop-color="#475569"/><stop offset="1" stop-color="#475569" stop-opacity="0"/></linearGradient><clipPath id="clip0_993_2410"><rect width="329" height="173" fill="#fff"/></clipPath><clipPath id="clip1_993_2410"><path fill="#fff" d="M37 27C37 25.8954 37.8954 25 39 25H289C290.105 25 291 25.8954 291 27V46H37V27Z"/></clipPath><clipPath id="clip2_993_2410"><path fill="#fff" d="M37 47H291V64H37V47Z"/></clipPath><clipPath id="clip3_993_2410"><path fill="#fff" d="M37 66H291V83H37V66Z"/></clipPath><clipPath id="clip4_993_2410"><path fill="#fff" d="M37 85H291V102H37V85Z"/></clipPath><clipPath id="clip5_993_2410"><path fill="#fff" d="M37 104H291V121H37V104Z"/></clipPath><clipPath id="clip6_993_2410"><rect width="254" height="17" fill="#fff" transform="translate(37 123)"/></clipPath></defs></svg>