<svg xmlns="http://www.w3.org/2000/svg" width="330" height="173" fill="none" viewBox="0 0 330 173"><g clip-path="url(#clip0_993_2387)"><rect width="328" height="172" x="1" y=".5" fill="url(#paint0_linear_993_2387)" fill-opacity=".5" stroke="url(#paint1_linear_993_2387)" rx="5.5"/><line x1="83.5" x2="95.5" y1="29" y2="29" stroke="#475569" stroke-linecap="round" stroke-opacity=".3" stroke-width="6"/><rect width="168" height="14" x="80.5" y="37.903" fill="#475569" fill-opacity=".13" rx="3"/><g clip-path="url(#clip1_993_2387)"><path stroke="#475569" stroke-linecap="round" stroke-linejoin="round" stroke-opacity=".88" stroke-width=".5" d="M91.7515 43.1536V46.6536C91.7515 46.8525 91.6724 47.0432 91.5318 47.1839C91.3911 47.3245 91.2004 47.4036 91.0015 47.4036H86.0015C85.8026 47.4036 85.6118 47.3245 85.4711 47.1839C85.3305 47.0432 85.2515 46.8525 85.2515 46.6536V43.1536M91.7515 43.1536C91.7515 42.9547 91.6724 42.7639 91.5318 42.6232C91.3911 42.4826 91.2004 42.4036 91.0015 42.4036H86.0015C85.8026 42.4036 85.6118 42.4826 85.4711 42.6232C85.3305 42.7639 85.2515 42.9547 85.2515 43.1536M91.7515 43.1536V43.2346C91.7515 43.3626 91.7187 43.4885 91.6563 43.6003C91.5938 43.7121 91.5038 43.8061 91.3948 43.8732L88.8948 45.4116C88.7765 45.4844 88.6404 45.523 88.5015 45.523C88.3626 45.523 88.2264 45.4844 88.1081 45.4116L85.6081 43.8736C85.4991 43.8064 85.4091 43.7125 85.3467 43.6007C85.2842 43.4889 85.2515 43.3629 85.2515 43.2349V43.1536"/></g><line x1="100.5" x2="166.5" y1="44.903" y2="44.903" stroke="#475569" stroke-linecap="round" stroke-opacity=".3" stroke-width="6"/><rect width="167" height="13" x="81" y="38.403" stroke="#475569" stroke-opacity=".3" rx="2.5"/><g opacity=".8"><line x1="83.5" x2="118.5" y1="73" y2="73" stroke="#475569" stroke-linecap="round" stroke-opacity=".3" stroke-width="6"/><rect width="168" height="14" x="80.5" y="81.903" fill="#475569" fill-opacity=".13" rx="3"/><line x1="87.5" x2="153.5" y1="88.903" y2="88.903" stroke="#475569" stroke-linecap="round" stroke-opacity=".3" stroke-width="6"/><rect width="167" height="13" x="81" y="82.403" stroke="#475569" stroke-opacity=".3" rx="2.5"/></g><g opacity=".4"><line x1="83.5" x2="118.5" y1="117" y2="117" stroke="#475569" stroke-linecap="round" stroke-opacity=".3" stroke-width="6"/><rect width="168" height="14" x="80.5" y="125.903" fill="#475569" fill-opacity=".13" rx="3"/><line x1="87.5" x2="153.5" y1="132.903" y2="132.903" stroke="#475569" stroke-linecap="round" stroke-opacity=".3" stroke-width="6"/><rect width="167" height="13" x="81" y="126.403" stroke="#475569" stroke-opacity=".3" rx="2.5"/></g></g><defs><linearGradient id="paint0_linear_993_2387" x1="165" x2="165" y1="0" y2="78.709" gradientUnits="userSpaceOnUse"><stop stop-color="#475569"/><stop offset="1" stop-color="#475569" stop-opacity="0"/></linearGradient><linearGradient id="paint1_linear_993_2387" x1="165" x2="165.02" y1="0" y2="117.577" gradientUnits="userSpaceOnUse"><stop stop-color="#475569"/><stop offset="1" stop-color="#475569" stop-opacity="0"/></linearGradient><clipPath id="clip0_993_2387"><rect width="329" height="173" fill="#fff" transform="translate(0.5)"/></clipPath><clipPath id="clip1_993_2387"><rect width="8" height="8" fill="#fff" transform="translate(84.5 40.9034)"/></clipPath></defs></svg>